<svg width="960" height="540" viewBox="0 0 960 540" xmlns="http://www.w3.org/2000/svg">
  <defs>
    <linearGradient id="docs-bg" x1="0" y1="0" x2="1" y2="1">
      <stop offset="0%" stop-color="#f8fafc" />
      <stop offset="100%" stop-color="#e2e8f0" />
    </linearGradient>
  </defs>
  <rect width="960" height="540" rx="32" fill="url(#docs-bg)" />
  <rect x="60" y="60" width="420" height="420" rx="24" fill="#0f172a" opacity="0.85" />
  <rect x="520" y="60" width="380" height="80" rx="20" fill="#fff" />
  <rect x="520" y="160" width="380" height="180" rx="24" fill="#fff" />
  <rect x="520" y="360" width="380" height="120" rx="24" fill="#fff" />
  <text x="520" y="110" font-family="'Segoe UI', sans-serif" font-size="32" font-weight="600" fill="#0f172a">Model Comparison</text>
  <text x="520" y="198" font-family="'Segoe UI', sans-serif" font-size="16" fill="#1e293b">• Linear 2-DOF vs Unicycle handling.</text>
  <text x="520" y="226" font-family="'Segoe UI', sans-serif" font-size="16" fill="#1e293b">• Shared parameters + scenario presets.</text>
  <text x="520" y="254" font-family="'Segoe UI', sans-serif" font-size="16" fill="#1e293b">• Open-in-sandbox deep links.</text>
  <text x="540" y="410" font-family="'Segoe UI', sans-serif" font-size="18" fill="#0f172a" font-weight="600">Docs stay synced with telemetry fields.</text>
  <rect x="92" y="92" width="356" height="160" rx="18" fill="#38bdf8" opacity="0.8" />
  <rect x="92" y="272" width="356" height="176" rx="18" fill="#22d3ee" opacity="0.8" />
  <text x="110" y="132" font-family="'Segoe UI', sans-serif" font-size="24" font-weight="600" fill="#0f172a">Telemetry</text>
  <text x="110" y="310" font-family="'Segoe UI', sans-serif" font-size="24" font-weight="600" fill="#0f172a">Parameter Sheets</text>
  <polyline points="420,180 500,220" fill="none" stroke="#38bdf8" stroke-width="4" stroke-linecap="round" />
  <polyline points="420,320 500,260" fill="none" stroke="#22d3ee" stroke-width="4" stroke-linecap="round" />
</svg>
