<svg width="960" height="540" viewBox="0 0 960 540" xmlns="http://www.w3.org/2000/svg">
  <defs>
    <linearGradient id="bg" x1="0" y1="0" x2="1" y2="1">
      <stop offset="0%" stop-color="#0f172a" />
      <stop offset="100%" stop-color="#1e293b" />
    </linearGradient>
    <linearGradient id="panel" x1="0" y1="0" x2="1" y2="1">
      <stop offset="0%" stop-color="#38bdf8" />
      <stop offset="100%" stop-color="#22d3ee" />
    </linearGradient>
    <linearGradient id="chart" x1="0" y1="0" x2="1" y2="0">
      <stop offset="0%" stop-color="#facc15" />
      <stop offset="100%" stop-color="#f97316" />
    </linearGradient>
  </defs>
  <rect width="960" height="540" fill="url(#bg)" rx="32" />
  <rect x="40" y="40" width="880" height="80" rx="20" fill="#1f2937" opacity="0.8" />
  <rect x="40" y="136" width="560" height="364" rx="24" fill="#111827" opacity="0.9" />
  <rect x="624" y="136" width="296" height="232" rx="24" fill="#1f2937" opacity="0.9" />
  <rect x="624" y="384" width="296" height="116" rx="24" fill="#1f2937" opacity="0.9" />
  <rect x="72" y="168" width="496" height="232" rx="16" fill="#0f172a" stroke="#38bdf8" stroke-width="2" />
  <path d="M100 368 Q180 320 260 360 T420 340" fill="none" stroke="#38bdf8" stroke-width="4" stroke-linecap="round" />
  <path d="M120 400 Q210 420 300 376 T480 392" fill="none" stroke="#fbbf24" stroke-width="4" stroke-linecap="round" opacity="0.8" />
  <rect x="656" y="168" width="232" height="40" rx="12" fill="#0f172a" stroke="#38bdf8" stroke-width="2" />
  <rect x="656" y="224" width="232" height="40" rx="12" fill="#0f172a" stroke="#38bdf8" stroke-width="2" opacity="0.7" />
  <rect x="656" y="280" width="232" height="40" rx="12" fill="#0f172a" stroke="#38bdf8" stroke-width="2" opacity="0.5" />
  <rect x="656" y="416" width="232" height="40" rx="12" fill="url(#panel)" opacity="0.9" />
  <rect x="656" y="464" width="232" height="24" rx="10" fill="#38bdf8" opacity="0.5" />
  <polyline points="80,432 160,408 240,420 320,392 400,404 480,396 552,420" fill="none" stroke="#22d3ee" stroke-width="4" stroke-linecap="round" opacity="0.7" />
  <rect x="72" y="424" width="496" height="76" rx="16" fill="#0f172a" stroke="#1d4ed8" stroke-width="2" opacity="0.8" />
  <rect x="120" y="470" width="120" height="18" rx="9" fill="#38bdf8" opacity="0.6" />
  <rect x="264" y="470" width="120" height="18" rx="9" fill="#22d3ee" opacity="0.6" />
  <rect x="408" y="470" width="120" height="18" rx="9" fill="#facc15" opacity="0.6" />
  <text x="72" y="102" fill="#e2e8f0" font-family="'Segoe UI', sans-serif" font-size="36" font-weight="600">VehicleLab Sandbox</text>
  <text x="656" y="200" fill="#bae6fd" font-family="'Segoe UI', sans-serif" font-size="16">Scenario: Skidpad</text>
  <text x="656" y="256" fill="#bae6fd" font-family="'Segoe UI', sans-serif" font-size="16">Model: 2-DOF</text>
  <text x="656" y="312" fill="#bae6fd" font-family="'Segoe UI', sans-serif" font-size="16">Telemetry: Live</text>
  <text x="676" y="444" fill="#0f172a" font-family="'Segoe UI', sans-serif" font-size="18" font-weight="600">Run Simulation</text>
</svg>
